<?xml version="1.0" encoding="utf-8"?>
<!-- Generator: Adobe Illustrator 22.0.0, SVG Export Plug-In . SVG Version: 6.00 Build 0)  -->
<svg version="1.1" id="Слой_1" xmlns="http://www.w3.org/2000/svg" xmlns:xlink="http://www.w3.org/1999/xlink" x="0px" y="0px"
	 viewBox="0 0 90 60" style="enable-background:new 0 0 90 60;" xml:space="preserve">
<style type="text/css">
	.st0{fill:#0F0E0E;}
	.st1{enable-background:new    ;}
	.st2{fill:#FBBC05;}
</style>
<g>
	<g>
		<g>
			<g>
				<path class="st0" d="M2.3,14.4h14.4c0.6,0,1,0.5,1,1l0,0c0,0.6-0.5,1-1,1H2.3c-0.6,0-1-0.5-1-1l0,0C1.3,14.9,1.8,14.4,2.3,14.4z
					"/>
			</g>
			<g>
				<path class="st0" d="M8.6,28.8v-9.5c0-0.6,0.5-1,1-1l0,0c0.6,0,1,0.5,1,1v9.5c0,0.6-0.5,1-1,1l0,0C9,29.8,8.6,29.4,8.6,28.8z"/>
			</g>
		</g>
		<g>
			<g>
				<path class="st0" d="M20,28.1l5-8.1c0.3-0.5,0.9-0.6,1.4-0.3l0,0c0.5,0.3,0.6,0.9,0.3,1.4l-4.9,8.1c-0.3,0.5-0.9,0.6-1.4,0.3
					l0,0C19.9,29.2,19.7,28.6,20,28.1z"/>
			</g>
			<g>
				<path class="st0" d="M23.5,23.9h4.3c0.6,0,1,0.5,1,1l0,0c0,0.6-0.5,1-1,1h-4.3c-0.6,0-1-0.5-1-1l0,0
					C22.5,24.3,23,23.9,23.5,23.9z"/>
			</g>
			<g>
				<path class="st0" d="M29.5,15.1l5.9,13.2c0.2,0.5,0,1.1-0.5,1.3l0,0c-0.5,0.2-1.1,0-1.3-0.5l-5.9-13.2c-0.2-0.5,0-1.1,0.5-1.3
					l0,0C28.7,14.3,29.3,14.5,29.5,15.1z"/>
			</g>
		</g>
		<g>
			<g>
				<path class="st0" d="M39.3,20.8v-5.5c0-0.6,0.5-1,1-1l0,0c0.6,0,1,0.5,1,1v5.5c0,0.6-0.5,1-1,1l0,0
					C39.8,21.8,39.3,21.4,39.3,20.8z"/>
			</g>
			<g>
				<path class="st0" d="M39.6,27.7l10.6-12.9c0.4-0.5,1.2-0.6,1.6-0.2l0,0c0.5,0.4,0.6,1.2,0.2,1.6L41.4,29.1
					c-0.4,0.5-1.2,0.6-1.6,0.2l0,0C39.2,28.9,39.2,28.1,39.6,27.7z"/>
			</g>
			<g>
				<path class="st0" d="M51,29.5l-3.4-2.9c-0.3-0.3-0.4-0.8-0.1-1.2l0,0c0.3-0.3,0.8-0.4,1.2-0.1l3.4,2.9c0.3,0.3,0.4,0.8,0.1,1.2
					l0,0C51.9,29.8,51.4,29.8,51,29.5z"/>
			</g>
		</g>
		<g>
			<g>
				<path class="st0" d="M61.3,19.7l-2.9-4c-0.3-0.4-0.2-1,0.2-1.3l0,0c0.4-0.3,1-0.2,1.3,0.2l2.9,4c0.3,0.4,0.2,1-0.2,1.3l0,0
					C62.2,20.2,61.6,20.1,61.3,19.7z"/>
			</g>
			<g>
				<path class="st0" d="M63,22.8l4.9-8.1c0.3-0.5,0.9-0.6,1.4-0.3l0,0c0.5,0.3,0.6,0.9,0.3,1.4l-4.9,8.1c-0.3,0.5-0.9,0.6-1.4,0.3
					l0,0C62.9,23.9,62.7,23.3,63,22.8z"/>
			</g>
			<g>
				<path class="st0" d="M62.9,29.1v-5.8c0-0.6,0.5-1,1-1l0,0c0.6,0,1,0.5,1,1v5.8c0,0.6-0.5,1-1,1l0,0
					C63.3,30.1,62.9,29.7,62.9,29.1z"/>
			</g>
		</g>
		<g>
			<g>
				<path class="st0" d="M75.6,20.8v-5.5c0-0.6,0.5-1,1-1l0,0c0.6,0,1,0.5,1,1v5.5c0,0.6-0.5,1-1,1l0,0
					C76.1,21.8,75.6,21.3,75.6,20.8z"/>
			</g>
			<g>
				<path class="st0" d="M75.9,27.6l10.6-12.9c0.4-0.5,1.2-0.6,1.6-0.2l0,0c0.5,0.4,0.6,1.2,0.2,1.6l-10.6,13
					c-0.4,0.5-1.2,0.6-1.6,0.2l0,0C75.5,28.8,75.5,28.1,75.9,27.6z"/>
			</g>
			<g>
				<path class="st0" d="M87.3,29.5l-3.4-2.9c-0.3-0.3-0.4-0.8-0.1-1.2l0,0c0.3-0.3,0.8-0.4,1.2-0.1l3.4,2.9
					c0.3,0.3,0.4,0.8,0.1,1.2l0,0C88.2,29.7,87.7,29.7,87.3,29.5z"/>
			</g>
		</g>
	</g>
	<g class="st1">
		<path class="st0" d="M11.9,37.5l-1.5,0.3c-0.1-0.3-0.2-0.5-0.3-0.7c-0.2-0.2-0.4-0.2-0.7-0.2c-0.4,0-0.7,0.1-0.9,0.4
			C8.2,37.5,8,37.9,8,38.6c0,0.7,0.1,1.2,0.3,1.5c0.2,0.3,0.5,0.4,0.9,0.4c0.3,0,0.5-0.1,0.7-0.2c0.2-0.2,0.3-0.5,0.4-0.9l1.5,0.3
			c-0.2,0.7-0.5,1.2-0.9,1.6c-0.4,0.4-1,0.5-1.8,0.5c-0.8,0-1.5-0.3-2-0.8s-0.8-1.3-0.8-2.2c0-1,0.3-1.7,0.8-2.2
			c0.5-0.5,1.2-0.8,2.1-0.8c0.7,0,1.3,0.2,1.7,0.5C11.4,36.4,11.7,36.9,11.9,37.5z"/>
	</g>
	<g class="st1">
		<path class="st0" d="M14.5,41.6h-1.5v-5.8h1.4v0.8c0.2-0.4,0.5-0.6,0.7-0.8c0.2-0.1,0.4-0.2,0.7-0.2c0.3,0,0.7,0.1,1,0.3l-0.5,1.3
			C16,37.1,15.7,37,15.5,37c-0.2,0-0.4,0.1-0.5,0.2c-0.1,0.1-0.3,0.3-0.4,0.6c-0.1,0.3-0.1,1-0.1,1.9V41.6z"/>
		<path class="st0" d="M20.7,39.7l1.5,0.3c-0.2,0.6-0.5,1-0.9,1.3s-1,0.4-1.6,0.4c-1,0-1.8-0.3-2.2-1c-0.4-0.5-0.6-1.2-0.6-2
			c0-1,0.3-1.7,0.8-2.3c0.5-0.5,1.1-0.8,1.9-0.8c0.9,0,1.5,0.3,2,0.9c0.5,0.6,0.7,1.4,0.7,2.6h-3.8c0,0.5,0.1,0.8,0.4,1.1
			c0.2,0.3,0.5,0.4,0.9,0.4c0.2,0,0.4-0.1,0.6-0.2C20.5,40.2,20.6,40,20.7,39.7z M20.8,38.2c0-0.4-0.1-0.8-0.3-1
			c-0.2-0.2-0.5-0.3-0.8-0.3c-0.3,0-0.6,0.1-0.8,0.4s-0.3,0.6-0.3,1H20.8z"/>
		<path class="st0" d="M24.7,37.5l-1.4-0.3c0.2-0.6,0.4-1,0.8-1.2c0.4-0.3,1-0.4,1.7-0.4c0.7,0,1.2,0.1,1.5,0.2
			c0.3,0.2,0.6,0.4,0.7,0.6c0.1,0.3,0.2,0.7,0.2,1.4l0,1.8c0,0.5,0,0.9,0.1,1.1s0.1,0.5,0.3,0.8h-1.5c0-0.1-0.1-0.3-0.1-0.5
			c0-0.1,0-0.2-0.1-0.2c-0.3,0.3-0.5,0.4-0.8,0.6c-0.3,0.1-0.6,0.2-1,0.2c-0.6,0-1.1-0.2-1.4-0.5s-0.5-0.7-0.5-1.2
			c0-0.3,0.1-0.6,0.2-0.9c0.2-0.3,0.4-0.5,0.7-0.6s0.7-0.3,1.2-0.4c0.7-0.1,1.2-0.3,1.5-0.4v-0.2c0-0.3-0.1-0.5-0.2-0.6
			c-0.1-0.1-0.4-0.2-0.8-0.2c-0.3,0-0.5,0.1-0.6,0.2C25,37.1,24.8,37.3,24.7,37.5z M26.8,38.8c-0.2,0.1-0.5,0.1-0.9,0.2
			c-0.4,0.1-0.7,0.2-0.8,0.3c-0.2,0.1-0.3,0.3-0.3,0.5c0,0.2,0.1,0.4,0.2,0.6c0.2,0.2,0.4,0.2,0.6,0.2c0.3,0,0.5-0.1,0.8-0.3
			c0.2-0.1,0.3-0.3,0.4-0.5c0-0.1,0.1-0.4,0.1-0.7V38.8z"/>
		<path class="st0" d="M32.5,35.8V37h-1v2.3c0,0.5,0,0.8,0,0.8s0.1,0.1,0.1,0.2c0.1,0.1,0.2,0.1,0.3,0.1c0.1,0,0.3,0,0.6-0.1
			l0.1,1.2c-0.4,0.2-0.8,0.2-1.2,0.2c-0.3,0-0.5,0-0.7-0.1c-0.2-0.1-0.4-0.2-0.5-0.4s-0.2-0.3-0.2-0.6c0-0.2,0-0.5,0-1.1V37h-0.7
			v-1.2h0.7v-1.2l1.5-0.9v2H32.5z"/>
		<path class="st0" d="M33.5,35v-1.4h1.5V35H33.5z M33.5,41.6v-5.8h1.5v5.8H33.5z"/>
		<path class="st0" d="M38.2,41.6l-2.3-5.8h1.6l1.1,3l0.3,1c0.1-0.3,0.1-0.4,0.2-0.5c0.1-0.2,0.1-0.3,0.2-0.5l1.1-3h1.6l-2.3,5.8
			H38.2z"/>
		<path class="st0" d="M46.2,39.7l1.5,0.3c-0.2,0.6-0.5,1-0.9,1.3c-0.4,0.3-1,0.4-1.6,0.4c-1,0-1.8-0.3-2.2-1
			c-0.4-0.5-0.6-1.2-0.6-2c0-1,0.3-1.7,0.8-2.3c0.5-0.5,1.1-0.8,1.9-0.8c0.9,0,1.5,0.3,2,0.9c0.5,0.6,0.7,1.4,0.7,2.6H44
			c0,0.5,0.1,0.8,0.4,1.1c0.2,0.3,0.5,0.4,0.9,0.4c0.2,0,0.4-0.1,0.6-0.2C46,40.2,46.1,40,46.2,39.7z M46.3,38.2
			c0-0.4-0.1-0.8-0.3-1c-0.2-0.2-0.5-0.3-0.8-0.3c-0.3,0-0.6,0.1-0.8,0.4s-0.3,0.6-0.3,1H46.3z"/>
	</g>
	<g class="st1">
		<path class="st2" d="M50.6,39.9l1.5-0.2c0.1,0.3,0.2,0.5,0.4,0.7c0.2,0.2,0.5,0.2,0.8,0.2c0.4,0,0.7-0.1,0.9-0.2
			c0.1-0.1,0.2-0.2,0.2-0.4c0-0.1,0-0.2-0.1-0.3c-0.1-0.1-0.2-0.1-0.5-0.2c-1.2-0.3-2-0.5-2.4-0.7c-0.5-0.3-0.7-0.7-0.7-1.3
			c0-0.5,0.2-0.9,0.6-1.3c0.4-0.3,1-0.5,1.8-0.5c0.8,0,1.4,0.1,1.8,0.4s0.7,0.6,0.8,1.1l-1.4,0.3c-0.1-0.2-0.2-0.4-0.4-0.5
			c-0.2-0.1-0.4-0.2-0.7-0.2c-0.4,0-0.7,0.1-0.9,0.2c-0.1,0.1-0.2,0.2-0.2,0.3c0,0.1,0.1,0.2,0.2,0.3c0.1,0.1,0.6,0.2,1.4,0.4
			s1.4,0.4,1.7,0.7c0.3,0.3,0.5,0.7,0.5,1.1c0,0.5-0.2,1-0.7,1.4c-0.4,0.4-1.1,0.6-2,0.6c-0.8,0-1.4-0.2-1.9-0.5
			S50.8,40.5,50.6,39.9z"/>
	</g>
	<g class="st1">
		<path class="st2" d="M60,35.8V37h-1v2.3c0,0.5,0,0.8,0,0.8c0,0.1,0.1,0.1,0.1,0.2c0.1,0.1,0.2,0.1,0.3,0.1c0.1,0,0.3,0,0.6-0.1
			l0.1,1.2c-0.4,0.2-0.8,0.2-1.2,0.2c-0.3,0-0.5,0-0.7-0.1c-0.2-0.1-0.4-0.2-0.5-0.4c-0.1-0.1-0.2-0.3-0.2-0.6c0-0.2,0-0.5,0-1.1V37
			h-0.7v-1.2h0.7v-1.2l1.5-0.9v2H60z"/>
		<path class="st2" d="M64.9,41.6v-0.9c-0.2,0.3-0.5,0.6-0.8,0.7c-0.3,0.2-0.7,0.3-1.1,0.3c-0.4,0-0.7-0.1-1-0.3
			c-0.3-0.2-0.5-0.4-0.7-0.7c-0.1-0.3-0.2-0.7-0.2-1.3v-3.7h1.5v2.7c0,0.8,0,1.3,0.1,1.5c0.1,0.2,0.2,0.3,0.3,0.4s0.3,0.2,0.6,0.2
			c0.3,0,0.5-0.1,0.7-0.2c0.2-0.1,0.3-0.3,0.4-0.5s0.1-0.7,0.1-1.6v-2.4h1.5v5.8H64.9z"/>
		<path class="st2" d="M73.2,41.6h-1.4v-0.9c-0.2,0.3-0.5,0.6-0.8,0.7s-0.6,0.2-1,0.2c-0.7,0-1.2-0.3-1.7-0.8
			c-0.5-0.5-0.7-1.3-0.7-2.2c0-1,0.2-1.7,0.7-2.2c0.5-0.5,1-0.8,1.8-0.8c0.6,0,1.2,0.3,1.7,0.8v-2.9h1.5V41.6z M69.1,38.5
			c0,0.6,0.1,1.1,0.3,1.3c0.2,0.4,0.6,0.6,1,0.6c0.4,0,0.7-0.2,0.9-0.5c0.2-0.3,0.4-0.8,0.4-1.3c0-0.7-0.1-1.1-0.4-1.4
			c-0.2-0.3-0.5-0.4-0.9-0.4c-0.4,0-0.7,0.1-0.9,0.4C69.3,37.5,69.1,38,69.1,38.5z"/>
		<path class="st2" d="M74.8,35v-1.4h1.5V35H74.8z M74.8,41.6v-5.8h1.5v5.8H74.8z"/>
		<path class="st2" d="M77.5,38.6c0-0.5,0.1-1,0.4-1.5s0.6-0.8,1.1-1.1s1-0.4,1.5-0.4c0.9,0,1.6,0.3,2.2,0.9
			c0.6,0.6,0.8,1.3,0.8,2.2c0,0.9-0.3,1.6-0.8,2.2c-0.6,0.6-1.3,0.9-2.1,0.9c-0.5,0-1-0.1-1.5-0.4c-0.5-0.2-0.8-0.6-1.1-1.1
			C77.6,39.8,77.5,39.3,77.5,38.6z M79.1,38.7c0,0.6,0.1,1,0.4,1.3s0.6,0.5,1,0.5s0.7-0.2,1-0.5s0.4-0.8,0.4-1.3
			c0-0.6-0.1-1-0.4-1.3c-0.3-0.3-0.6-0.5-1-0.5s-0.7,0.2-1,0.5C79.2,37.7,79.1,38.1,79.1,38.7z"/>
	</g>
	<g>
		<path class="st0" d="M6.6,32.5h76.9c0.2,0,0.3-0.2,0.3-0.3V32c0-0.2-0.2-0.3-0.3-0.3H6.6c-0.2,0-0.3,0.2-0.3,0.3v0.1
			C6.2,32.3,6.4,32.5,6.6,32.5z"/>
	</g>
</g>
</svg>
