<svg xmlns="http://www.w3.org/2000/svg" width="19.927" height="22.774" viewBox="0 0 19.927 22.774">
  <path id="Icon_awesome-unlock" data-name="Icon awesome-unlock" d="M17.792,11.387H6.761v4.586a3.2,3.2,0,1,0,6.405.04V15.3a1.065,1.065,0,0,1,1.068-1.068h1.423A1.065,1.065,0,0,1,16.725,15.3v.712A6.761,6.761,0,1,1,3.2,15.946V11.387H2.135A2.136,2.136,0,0,1,0,9.252V2.135A2.136,2.136,0,0,1,2.135,0H17.792a2.136,2.136,0,0,1,2.135,2.135V9.252A2.136,2.136,0,0,1,17.792,11.387Z" transform="translate(19.927 22.774) rotate(180)" fill="#01833d"/>
</svg>
